<svg class="logo" viewBox="0 0 152 40" version="1.1" xmlns="http://www.w3.org/2000/svg" xmlns:xlink="http://www.w3.org/1999/xlink" width="175"  height="54" ><defs><symbol id="logo" viewBox="0 0 152 40">
				 <path id="svg-logo__title" d="M74.484 12.292c0-1.948-.543-2.821-1.265-3.512-.615-.584-1.591-.752-3.153-.81-.547-.018-13.63 0-14.235 0-3.15 0-3.66.487-4.265.946-.722.555-1.362 1.672-1.362 3.376v9.596c.018 1.897.65 3.14 1.884 3.691.526.237 1.663.476 5.434.476l16.086-.007v-3.602h-16.78a1.024 1.024 0 01-1.04-1.074l-.007-2.528H74.47l.014-6.552zm-5.609 2.911l-13.105-.029V12.68a1.072 1.072 0 011.058-1.107l10.943-.01c.613.008 1.105.51 1.104 1.124v2.517zM6.381 7.973H.747V26.07h5.634V7.974zM82.445.703h-5.601v25.357h5.601V.702zm2.388 25.346h5.595V.702h-5.595v25.346zM41.275 11.461h6.638V7.96l-6.638.01V.645h-5.616v21.243c0 1.915.657 3.176 1.866 3.774.897.444 1.619.386 5.39.386l4.887.011.007-3.63s-4.994.114-5.74-.108c-.626-.186-.794-.68-.794-1.293v-9.567zM.775.691h5.606v3.63H.776V.692zm31.823 8.697c-.915-1.045-1.397-1.464-6.624-1.432H8.748v18.107l5.587-.008V11.608h12.272a1.044 1.044 0 011.069 1.067v13.38h5.641V14.92c0-1.944.15-4.536-.719-5.532zm89.538-1.056c-.532-.222-1.08-.38-4.858-.38h-15.625v3.62c.021-.003 16.115 0 16.115 0a1.2 1.2 0 011.14 1.178l.004 2.431h-15.447c-1.752-.025-2.66 1.035-2.66 3.556 0 0-.046 2.07 0 3.67.025.866.008 1.769.33 2.392.41.795 1.072 1.145 2.39 1.25l21.031.017v-13.72c0-1.944-1.1-3.466-2.42-4.014zm-4.318 14.114l-10.378.011a.988.988 0 01-1.015-.917v-1.715a1.044 1.044 0 011.012-.988l11.478-.007.004 2.546a1.075 1.075 0 01-1.101 1.07zm33.431-2.348c0-1.332.125-2.868-1.115-4.118-.858-.87-2.274-.76-2.266-.791h-14.332a.983.983 0 01-.922-.813 4.578 4.578 0 01-.022-.448v-1.403c0-.128.026-.255.076-.373a.942.942 0 01.868-.587l16.862-.003.008-3.602-16.083.01c-3.8 0-4.723.086-5.455.484-1.184.644-1.91 1.858-1.91 3.799v1.564c0 1.221.022 2.596 1.137 3.8 1.02 1.098 2.124 1.138 3.55 1.23l13.077-.003c.534.015.963.446.976.981l-.008 1.673c-.047.51-.457.91-.968.945-.065.014-16.898-.004-16.898-.004v3.61l16.354.014c3.983.035 4.705-.054 5.216-.323 1.466-.766 1.752-1.736 1.855-3.54v-2.102zM92.844.69h5.584v3.63h-5.584V.692zm5.584 7.283h-5.584v18.064h5.584V7.974z" fill="#3CD5AF"></path>
                 <path id="svg-logo__description" d="M1.798 30.17H.786v6.777h1.012V30.17zm6.056 3.072a1.45 1.45 0 00-.376-1.092c-.25-.24-.707-.362-1.376-.362-1.008 0-1.558.243-1.655.723v-.616h-.94v5.052h.94v-3.655a.717.717 0 01.279-.656c.35-.149.73-.21 1.108-.179.198-.005.395.018.586.068.13.03.247.099.336.197a.788.788 0 01.129.258c.024.102.034.207.032.312v3.655h.937v-3.705zm4.819 3.111c-.249.042-.5.07-.751.082-.294.034-.59-.03-.844-.182a.948.948 0 01-.21-.724v-3.018h1.805v-.616h-1.806v-1.568H9.92v1.568H8.794v.616H9.92v2.965c0 .612.125 1.027.375 1.25.39.257.858.372 1.323.325.353.003.706-.025 1.055-.082v-.616zm5.19-2.84c0-.64-.168-1.088-.504-1.342a2.678 2.678 0 00-1.601-.383 2.86 2.86 0 00-1.698.397c-.383.33-.582.825-.533 1.329v1.994c0 1.031.772 1.543 2.313 1.543a8.361 8.361 0 001.827-.207v-.72a6.947 6.947 0 01-1.702.25 2.203 2.203 0 01-1.115-.225.81.81 0 01-.376-.756v-.762h3.39v-1.117zm-3.389.502v-.795a.667.667 0 01.304-.637c.292-.13.61-.188.93-.169a1.84 1.84 0 01.936.176.672.672 0 01.283.63v.795h-2.453zm5.777-4.375h-.936v7.307h.936V29.64zm2.588 0h-.94v7.307h.94V29.64zm2.585.426h-.94v.98h.94v-.98zm0 1.83h-.94v5.051h.94v-5.052zm5.076 0v.49c-.154-.398-.665-.598-1.54-.598a2.562 2.562 0 00-1.591.387 1.546 1.546 0 00-.487 1.285v2.059c-.047.44.108.877.422 1.188.283.23.812.344 1.591.344.358.006.715-.042 1.058-.143a.58.58 0 00.486-.501v1.21a.87.87 0 01-.329.763 1.854 1.854 0 01-1.047.229 16.615 16.615 0 01-1.827-.147v.67c.577.084 1.159.123 1.741.114a3.465 3.465 0 001.798-.372c.4-.247.6-.727.6-1.447v-5.532H30.5zm-.379 4.357a2.29 2.29 0 01-1.03.172c-.35.03-.701-.026-1.025-.161a.753.753 0 01-.254-.684v-2.288a.795.795 0 01.24-.677 1.92 1.92 0 011.022-.18c.375-.034.753.028 1.097.184a.76.76 0 01.268.673v2.288a.694.694 0 01-.318.673zm7.053-2.74c0-.64-.168-1.088-.507-1.342a2.664 2.664 0 00-1.598-.383 2.872 2.872 0 00-1.702.397c-.383.33-.581.825-.533 1.329v1.994c0 1.031.773 1.543 2.317 1.543a8.352 8.352 0 001.823-.207v-.72a6.92 6.92 0 01-1.698.25 2.203 2.203 0 01-1.115-.225.81.81 0 01-.376-.756v-.762h3.39v-1.117zm-3.389.502v-.795a.665.665 0 01.3-.637 2 2 0 01.93-.169c.323-.024.647.036.94.176.2.143.308.385.28.63v.795h-2.45zm9.184-.773a1.45 1.45 0 00-.375-1.092c-.25-.24-.708-.362-1.377-.362-1.008 0-1.558.243-1.655.723v-.616h-.94v5.052h.94v-3.655a.717.717 0 01.279-.656c.35-.149.73-.21 1.108-.179.198-.005.395.018.586.068.13.03.247.099.336.197a.788.788 0 01.13.258c.023.102.034.207.031.312v3.655h.937v-3.705zm4.819 3.111c-.249.042-.5.07-.75.082a1.353 1.353 0 01-.845-.182.948.948 0 01-.21-.724v-3.018h1.805v-.616h-1.805v-1.568h-.948v1.568H43.91v.616h1.126v2.965c0 .612.125 1.027.376 1.25.39.257.857.372 1.322.325.353.003.706-.025 1.055-.082v-.616zm7.632-2.907c-.25-.255-.726-.383-1.43-.383h-.811c-.305.024-.61-.031-.887-.162a.565.565 0 01-.25-.515v-.774c-.023-.26.1-.51.318-.651a2.81 2.81 0 011.287-.194c.609.015 1.215.074 1.816.176v-.763a16.115 16.115 0 00-1.745-.114c-1.011 0-1.707.129-2.087.386-.386.27-.601.723-.569 1.193v.54c-.033.443.111.881.4 1.218.269.275.744.411 1.423.411h.794c.305-.028.61.036.88.183.177.151.27.38.246.612v.878a.638.638 0 01-.382.651 2.92 2.92 0 01-1.098.161c-.716-.013-1.428-.1-2.127-.257v.845c.683.1 1.372.154 2.063.164a3.509 3.509 0 001.92-.412c.41-.275.614-.773.614-1.496v-.49a1.665 1.665 0 00-.375-1.207zm6.124-.695a1.52 1.52 0 00-.29-.533c-.14-.14-.315-.24-.508-.287a2.85 2.85 0 00-.618-.122 11.188 11.188 0 00-.787-.021c-.332 0-.597.007-.79.021a2.85 2.85 0 00-.618.122 1.084 1.084 0 00-.508.287 1.52 1.52 0 00-.29.533c-.087.273-.128.558-.12.845v1.754c-.012.321.039.641.15.942a.98.98 0 00.5.516c.222.103.458.172.7.204.325.031.65.045.976.04.326 0 .587-.008.787-.019a3.27 3.27 0 00.626-.114c.188-.048.36-.141.504-.272.132-.144.232-.315.293-.502.081-.256.12-.525.114-.795v-1.754a2.528 2.528 0 00-.121-.845zm-.912 3.269a.487.487 0 01-.272.286 1.388 1.388 0 01-.404.111c-.14.011-.346.018-.615.018-.268 0-.479-.007-.618-.018a1.388 1.388 0 01-.404-.11.487.487 0 01-.272-.287 1.552 1.552 0 01-.075-.533v-2.049c0-.465.097-.755.283-.866a3.656 3.656 0 012.17 0c.186.111.282.401.282.866v2.049c.006.18-.02.361-.075.533zm5.58-4.125h-1.68v-.877a.834.834 0 01.229-.691c.222-.136.48-.197.74-.175.272-.003.545.013.815.05v-.616a6.992 6.992 0 00-.847-.054 2.37 2.37 0 00-1.394.347c-.351.295-.532.745-.483 1.2v.816h-1.155v.616h1.155v4.436h.94v-4.436h1.68v-.616zm3.772 4.458c-.249.042-.5.07-.751.082a1.36 1.36 0 01-.844-.182.948.948 0 01-.207-.724v-3.018h1.802v-.616h-1.802v-1.568h-.951v1.568h-1.126v.616h1.126v2.965c0 .612.125 1.027.375 1.25.392.257.86.372 1.327.325.352.003.703-.025 1.05-.082v-.616zm7.403-4.458L76.2 36.05h-.064l-1.23-4.154h-1.054l-1.187 4.154H72.6l-1.23-4.154h-1.029l1.698 5.052h1.115l1.198-4.081 1.223 4.081h1.115l1.659-5.052h-.962zm5.902 1.483c0-.648-.125-1.075-.375-1.282-.25-.208-.801-.308-1.648-.308-.554 0-1.176.032-1.866.097v.687c.573-.078 1.151-.12 1.73-.125a2.18 2.18 0 01.965.146.593.593 0 01.257.566v.802H80.84c-.718 0-1.2.108-1.451.319-.288.315-.425.74-.375 1.164 0 .648.135 1.077.4 1.289.264.21.75.318 1.444.318.94 0 1.448-.193 1.523-.583v.48h.908v-3.57zm-1.058 2.835a.708.708 0 01-.35.154c-.136.031-.273.05-.412.058-.121.007-.271.01-.454.01h-.185a.932.932 0 01-.726-.21 1.231 1.231 0 01-.172-.75 1.193 1.193 0 01.161-.762c.242-.146.527-.206.808-.168h1.451v1.378a.38.38 0 01-.121.29zm5.426-4.425H87.2a1.735 1.735 0 00-.922.283.788.788 0 00-.454.648v-.824h-.887v5.052h.937v-3.559a.648.648 0 01.307-.626c.3-.13.628-.188.954-.169h.522v-.805zm5.109 1.726c0-.641-.168-1.089-.504-1.343a2.684 2.684 0 00-1.602-.383 2.86 2.86 0 00-1.698.397 1.546 1.546 0 00-.532 1.329v1.994c0 1.031.772 1.543 2.312 1.543a8.361 8.361 0 001.827-.207v-.72a6.947 6.947 0 01-1.701.25 2.203 2.203 0 01-1.116-.225.81.81 0 01-.375-.756v-.762h3.389v-1.117zm-3.39.5v-.794a.66.66 0 01.305-.637c.29-.13.608-.188.926-.169.323-.024.647.036.94.176a.68.68 0 01.282.63v.795h-2.452zm11.973 2.224h-3.64v-2.434h3.19v-.71h-3.19v-2.212h3.533v-.713h-4.544v6.778h4.65v-.709zm5.702-2.996a1.45 1.45 0 00-.376-1.092c-.25-.24-.708-.362-1.376-.362-1.008 0-1.562.243-1.659.723v-.616h-.936v5.052h.936v-3.655a.71.71 0 01.283-.656c.348-.149.727-.21 1.104-.179a2.12 2.12 0 01.59.068.62.62 0 01.333.197c.06.077.105.164.132.258.022.102.032.207.028.312v3.655h.94v-3.705zm5.076-1.347v.49c-.15-.397-.665-.597-1.54-.597a2.57 2.57 0 00-1.592.387c-.352.33-.532.804-.486 1.285v2.059c-.046.44.11.876.422 1.188.282.23.811.344 1.59.344.359.006.715-.042 1.059-.143a.58.58 0 00.486-.501v1.21a.87.87 0 01-.329.763 1.854 1.854 0 01-1.047.229 16.615 16.615 0 01-1.827-.147v.67c.578.085 1.16.123 1.745.114a3.483 3.483 0 001.798-.372c.396-.247.597-.727.597-1.447v-5.532h-.876zm-.38 4.358a2.273 2.273 0 01-1.025.172 2.185 2.185 0 01-1.03-.161.762.762 0 01-.253-.684v-2.288a.795.795 0 01.24-.677 1.93 1.93 0 011.021-.18c.377-.034.756.029 1.102.184a.767.767 0 01.264.673v2.288a.694.694 0 01-.318.673zm3.844-6.187h-.94v.98h.94v-.98zm0 1.83h-.94v5.051h.94v-5.052zm5.995 1.346a1.45 1.45 0 00-.376-1.092c-.25-.24-.711-.362-1.376-.362-1.008 0-1.562.243-1.659.723v-.616h-.94v5.052h.94v-3.655a.71.71 0 01.283-.656c.348-.15.727-.21 1.104-.179a2.12 2.12 0 01.59.068c.128.03.244.1.333.197.06.077.103.164.128.258.024.102.035.207.033.312v3.655h.94v-3.705zm5.794.272c0-.641-.168-1.089-.504-1.343a2.678 2.678 0 00-1.601-.383 2.86 2.86 0 00-1.698.397c-.383.33-.582.825-.533 1.329v1.994c0 1.031.772 1.543 2.317 1.543a8.352 8.352 0 001.823-.207v-.72a6.944 6.944 0 01-1.698.25 2.21 2.21 0 01-1.12-.225.81.81 0 01-.374-.756v-.762h3.388v-1.117zm-3.388.5v-.794a.667.667 0 01.303-.637c.292-.13.611-.188.93-.169a1.84 1.84 0 01.936.176.672.672 0 01.283.63v.795h-2.452zm8.99-.5c0-.641-.171-1.089-.507-1.343a2.67 2.67 0 00-1.602-.383 2.867 2.867 0 00-1.698.397c-.383.33-.581.825-.533 1.329v1.994c0 1.031.772 1.543 2.317 1.543a8.352 8.352 0 001.823-.207v-.72a6.944 6.944 0 01-1.698.25 2.203 2.203 0 01-1.115-.225.81.81 0 01-.376-.756v-.762h3.39v-1.117zm-3.389.5v-.794a.665.665 0 01.3-.637 2 2 0 01.93-.169 1.84 1.84 0 01.937.176.672.672 0 01.282.63v.795h-2.449zm7.557-2.226h-.457a1.735 1.735 0 00-.923.283.788.788 0 00-.454.648v-.824h-.886v5.052h.937v-3.559a.645.645 0 01.31-.626c.3-.13.626-.188.951-.169h.522v-.805zm1.899-1.722h-.937v.98h.937v-.98zm0 1.83h-.937v5.051h.937v-5.052zm5.994 1.346a1.45 1.45 0 00-.375-1.092c-.25-.24-.708-.362-1.376-.362-1.008 0-1.559.243-1.659.723v-.616h-.936v5.052h.936v-3.655a.717.717 0 01.283-.656c.348-.149.727-.21 1.104-.179a2.12 2.12 0 01.59.068.62.62 0 01.332.197c.061.077.106.164.133.258.023.102.034.207.032.312v3.655h.936v-3.705zm5.077-1.347v.49c-.15-.397-.665-.597-1.541-.597a2.57 2.57 0 00-1.59.387c-.353.33-.533.804-.487 1.285v2.059c-.046.44.11.878.425 1.188.28.23.812.344 1.588.344.357.006.714-.042 1.058-.143a.58.58 0 00.486-.501v1.21a.87.87 0 01-.329.763 1.854 1.854 0 01-1.047.229 16.5 16.5 0 01-1.824-.147v.67a10.77 10.77 0 001.741.114 3.483 3.483 0 001.798-.372c.4-.247.597-.727.597-1.447v-5.532h-.875zm-.38 4.358a2.273 2.273 0 01-1.025.172 2.185 2.185 0 01-1.03-.161.762.762 0 01-.254-.684v-2.288a.795.795 0 01.24-.677 1.93 1.93 0 011.022-.18c.377-.034.756.029 1.101.184a.767.767 0 01.265.673v2.288a.694.694 0 01-.318.673z" fill="#263745"></path>
				</symbol></defs>
				<use xlink:href="#logo"></use>
			</svg>